<svg data-v-423bf9ae="" xmlns="http://www.w3.org/2000/svg" viewBox="0 0 605 90" class="iconLeftSlogan"><!----><!----><!----><g data-v-423bf9ae="" id="2759f087-3dd3-4a1a-9ddf-0f9401450b39" fill="white" transform="matrix(4.735595867300924,0,0,4.735595867300924,108.86457687090422,-10.276242439665985)"><path d="M4.24 12.46L4.24 12.46Q2.46 12.46 1.35 11.84L1.35 11.84L1.35 11.84Q0.24 11.21 0.24 10.01L0.24 10.01L0.24 10.01Q0.24 9.63 0.35 9.21L0.35 9.21L2.16 9.21L2.16 9.21Q2.07 9.55 2.07 9.72L2.07 9.72L2.07 9.72Q2.07 10.30 2.60 10.63L2.60 10.63L2.60 10.63Q3.14 10.95 4.09 10.95L4.09 10.95L4.09 10.95Q5.31 10.95 5.92 10.58L5.92 10.58L5.92 10.58Q6.52 10.21 6.52 9.56L6.52 9.56L6.52 9.56Q6.52 9.17 6.24 8.90L6.24 8.90L6.24 8.90Q5.95 8.64 5.52 8.47L5.52 8.47L5.52 8.47Q5.08 8.30 4.34 8.08L4.34 8.08L4.34 8.08Q3.35 7.78 2.73 7.52L2.73 7.52L2.73 7.52Q2.11 7.25 1.68 6.75L1.68 6.75L1.68 6.75Q1.25 6.26 1.25 5.47L1.25 5.47L1.25 5.47Q1.25 4.51 1.79 3.84L1.79 3.84L1.79 3.84Q2.32 3.18 3.23 2.85L3.23 2.85L3.23 2.85Q4.13 2.52 5.22 2.52L5.22 2.52L5.22 2.52Q6.87 2.52 7.88 3.09L7.88 3.09L7.88 3.09Q8.89 3.65 8.89 4.77L8.89 4.77L8.89 4.77Q8.89 5.07 8.82 5.47L8.82 5.47L7.06 5.47L7.06 5.47Q7.10 5.28 7.10 5.12L7.10 5.12L7.10 5.12Q7.10 4.61 6.62 4.32L6.62 4.32L6.62 4.32Q6.15 4.03 5.32 4.03L5.32 4.03L5.32 4.03Q4.30 4.03 3.70 4.35L3.70 4.35L3.70 4.35Q3.09 4.66 3.09 5.22L3.09 5.22L3.09 5.22Q3.09 5.71 3.60 5.98L3.60 5.98L3.60 5.98Q4.12 6.26 5.18 6.57L5.18 6.57L5.18 6.57Q6.20 6.86 6.84 7.13L6.84 7.13L6.84 7.13Q7.48 7.41 7.94 7.92L7.94 7.92L7.94 7.92Q8.40 8.43 8.40 9.23L8.40 9.23L8.40 9.23Q8.40 10.35 7.81 11.07L7.81 11.07L7.81 11.07Q7.22 11.80 6.29 12.13L6.29 12.13L6.29 12.13Q5.35 12.46 4.24 12.46L4.24 12.46ZM9.06 14.71L10.78 4.93L12.14 4.93L12.14 5.91L12.24 5.91L12.24 5.91Q12.66 5.36 13.23 5.06L13.23 5.06L13.23 5.06Q13.80 4.76 14.45 4.76L14.45 4.76L14.45 4.76Q15.71 4.76 16.38 5.47L16.38 5.47L16.38 5.47Q17.05 6.19 17.05 7.67L17.05 7.67L17.05 7.67Q17.05 8.86 16.65 9.97L16.65 9.97L16.65 9.97Q16.24 11.07 15.46 11.77L15.46 11.77L15.46 11.77Q14.67 12.46 13.58 12.46L13.58 12.46L13.58 12.46Q12.80 12.46 12.26 12.20L12.26 12.20L12.26 12.20Q11.73 11.94 11.40 11.44L11.40 11.44L11.31 11.44L10.74 14.71L9.06 14.71ZM13.12 11.06L13.12 11.06Q14.27 11.06 14.78 10.04L14.78 10.04L14.78 10.04Q15.30 9.03 15.30 7.73L15.30 7.73L15.30 7.73Q15.30 6.94 14.97 6.57L14.97 6.57L14.97 6.57Q14.64 6.20 13.94 6.20L13.94 6.20L13.94 6.20Q13.19 6.20 12.69 6.69L12.69 6.69L12.69 6.69Q12.19 7.18 11.96 7.94L11.96 7.94L11.96 7.94Q11.73 8.71 11.73 9.53L11.73 9.53L11.73 9.53Q11.73 11.06 13.12 11.06L13.12 11.06ZM17.85 12.29L19.15 4.93L20.51 4.93L20.48 6.09L20.58 6.09L20.58 6.09Q20.92 5.47 21.34 5.12L21.34 5.12L21.34 5.12Q21.76 4.76 22.41 4.76L22.41 4.76L22.41 4.76Q22.69 4.76 22.92 4.82L22.92 4.82L22.92 4.82Q23.14 4.87 23.14 4.89L23.14 4.89L22.88 6.47L22.34 6.47L22.34 6.47Q20.55 6.47 20.19 8.51L20.19 8.51L19.53 12.29L17.85 12.29ZM24.49 3.78L24.77 2.17L26.45 2.17L26.17 3.78L24.49 3.78ZM22.99 12.29L24.29 4.93L25.97 4.93L24.67 12.29L22.99 12.29ZM26.66 12.29L27.96 4.93L29.32 4.93L29.32 5.92L29.41 5.92L29.41 5.92Q29.83 5.42 30.49 5.09L30.49 5.09L30.49 5.09Q31.14 4.76 31.84 4.76L31.84 4.76L31.84 4.76Q32.80 4.76 33.38 5.21L33.38 5.21L33.38 5.21Q33.96 5.67 33.96 6.64L33.96 6.64L33.96 6.64Q33.96 7.01 33.84 7.74L33.84 7.74L33.03 12.29L31.35 12.29L32.13 7.84L32.13 7.84Q32.21 7.34 32.21 7.15L32.21 7.15L32.21 7.15Q32.21 6.65 31.96 6.43L31.96 6.43L31.96 6.43Q31.70 6.22 31.22 6.22L31.22 6.22L31.22 6.22Q30.42 6.22 29.81 6.78L29.81 6.78L29.81 6.78Q29.20 7.34 29.04 8.33L29.04 8.33L28.34 12.29L26.66 12.29ZM37.62 14.84L37.62 14.84Q36.27 14.84 35.49 14.31L35.49 14.31L35.49 14.31Q34.71 13.79 34.69 12.78L34.69 12.78L34.69 12.64L36.33 12.64L36.33 12.64Q36.37 13.08 36.70 13.27L36.70 13.27L36.70 13.27Q37.03 13.47 37.66 13.47L37.66 13.47L37.66 13.47Q39.33 13.47 39.70 11.47L39.70 11.47L39.77 11.07L39.69 11.07L39.69 11.07Q38.86 12.08 37.51 12.08L37.51 12.08L37.51 12.08Q36.39 12.08 35.71 11.41L35.71 11.41L35.71 11.41Q35.03 10.74 35.03 9.39L35.03 9.39L35.03 9.39Q35.03 8.19 35.43 7.13L35.43 7.13L35.43 7.13Q35.84 6.06 36.64 5.41L36.64 5.41L36.64 5.41Q37.44 4.76 38.56 4.76L38.56 4.76L38.56 4.76Q39.33 4.76 39.89 5.05L39.89 5.05L39.89 5.05Q40.46 5.33 40.74 5.91L40.74 5.91L40.84 5.91L41.15 4.93L42.53 4.93L41.38 11.41L41.38 11.41Q41.08 13.15 40.17 13.99L40.17 13.99L40.17 13.99Q39.26 14.84 37.62 14.84L37.62 14.84ZM38.12 10.64L38.12 10.64Q38.88 10.64 39.37 10.18L39.37 10.18L39.37 10.18Q39.86 9.73 40.09 9.04L40.09 9.04L40.09 9.04Q40.32 8.34 40.32 7.62L40.32 7.62L40.32 7.62Q40.32 6.20 38.96 6.20L38.96 6.20L38.96 6.20Q37.81 6.20 37.29 7.13L37.29 7.13L37.29 7.13Q36.76 8.06 36.76 9.31L36.76 9.31L36.76 9.31Q36.76 10.00 37.09 10.32L37.09 10.32L37.09 10.32Q37.41 10.64 38.12 10.64L38.12 10.64ZM51.45 12.46L51.45 12.46Q47.39 12.46 47.39 8.74L47.39 8.74L47.39 8.74Q47.39 7.14 47.91 5.80L47.91 5.80L47.91 5.80Q48.44 4.45 49.46 3.61L49.46 3.61L49.46 3.61Q50.12 3.08 50.99 2.80L50.99 2.80L50.99 2.80Q51.86 2.52 52.86 2.52L52.86 2.52L52.86 2.52Q54.61 2.52 55.66 3.27L55.66 3.27L55.66 3.27Q56.71 4.02 56.71 5.45L56.71 5.45L56.71 5.45Q56.71 5.77 56.64 6.23L56.64 6.23L54.81 6.23L54.81 6.23Q54.85 5.98 54.85 5.74L54.85 5.74L54.85 5.74Q54.85 4.90 54.32 4.47L54.32 4.47L54.32 4.47Q53.79 4.03 52.85 4.03L52.85 4.03L52.85 4.03Q51.45 4.03 50.57 4.86L50.57 4.86L50.57 4.86Q49.70 5.70 49.41 7.17L49.41 7.17L49.41 7.17Q49.22 8.06 49.22 8.67L49.22 8.67L49.22 8.67Q49.22 9.83 49.78 10.39L49.78 10.39L49.78 10.39Q50.33 10.95 51.46 10.95L51.46 10.95L51.46 10.95Q52.64 10.95 53.44 10.38L53.44 10.38L53.44 10.38Q54.24 9.81 54.43 8.78L54.43 8.78L56.20 8.78L56.20 8.78Q55.89 10.58 54.59 11.52L54.59 11.52L54.59 11.52Q53.28 12.46 51.45 12.46L51.45 12.46ZM57.19 12.29L58.97 2.17L60.65 2.17L58.87 12.29L57.19 12.29ZM64.19 12.46L64.19 12.46Q62.52 12.46 61.70 11.77L61.70 11.77L61.70 11.77Q60.89 11.07 60.89 9.63L60.89 9.63L60.89 9.63Q60.89 8.32 61.30 7.21L61.30 7.21L61.30 7.21Q61.71 6.10 62.60 5.43L62.60 5.43L62.60 5.43Q63.49 4.76 64.86 4.76L64.86 4.76L64.86 4.76Q67.86 4.76 67.86 7.43L67.86 7.43L67.86 7.43Q67.86 7.99 67.75 8.51L67.75 8.51L67.66 9.02L62.64 9.02L62.64 9.02Q62.59 9.24 62.59 9.62L62.59 9.62L62.59 9.62Q62.59 10.39 62.96 10.76L62.96 10.76L62.96 10.76Q63.34 11.13 64.13 11.13L64.13 11.13L64.13 11.13Q64.85 11.13 65.30 10.78L65.30 10.78L65.30 10.78Q65.76 10.43 65.88 9.72L65.88 9.72L67.54 9.72L67.54 9.72Q67.33 11.07 66.42 11.77L66.42 11.77L66.42 11.77Q65.52 12.46 64.19 12.46L64.19 12.46ZM62.87 7.83L66.14 7.83L66.14 7.83Q66.18 7.57 66.18 7.34L66.18 7.34L66.18 7.34Q66.18 6.69 65.84 6.39L65.84 6.39L65.84 6.39Q65.51 6.09 64.90 6.09L64.90 6.09L64.90 6.09Q63.35 6.09 62.87 7.83L62.87 7.83ZM74.98 10.71L74.98 10.71Q74.98 11.09 75.39 11.09L75.39 11.09L75.85 11.09L75.64 12.24L75.64 12.24Q75.22 12.46 74.58 12.46L74.58 12.46L74.58 12.46Q74.03 12.46 73.70 12.14L73.70 12.14L73.70 12.14Q73.37 11.82 73.37 11.26L73.37 11.26L73.30 11.26L73.30 11.26Q72.93 11.83 72.32 12.14L72.32 12.14L72.32 12.14Q71.72 12.46 71.05 12.46L71.05 12.46L71.05 12.46Q69.94 12.46 69.31 11.73L69.31 11.73L69.31 11.73Q68.67 11.00 68.67 9.63L68.67 9.63L68.67 9.63Q68.67 8.41 69.06 7.29L69.06 7.29L69.06 7.29Q69.45 6.17 70.22 5.47L70.22 5.47L70.22 5.47Q70.98 4.76 72.04 4.76L72.04 4.76L72.04 4.76Q72.80 4.76 73.30 5.01L73.30 5.01L73.30 5.01Q73.79 5.26 74.10 5.78L74.10 5.78L74.19 5.78L74.62 4.93L76.01 4.93L76.01 4.93Q75.82 5.95 75.68 6.77L75.68 6.77L75.68 6.77Q75.53 7.59 75.42 8.23L75.42 8.23L75.42 8.23Q74.98 10.57 74.98 10.71L74.98 10.71ZM71.64 11.02L71.64 11.02Q72.38 11.02 72.86 10.47L72.86 10.47L72.86 10.47Q73.33 9.93 73.55 9.16L73.55 9.16L73.55 9.16Q73.77 8.39 73.77 7.69L73.77 7.69L73.77 7.69Q73.77 6.16 72.48 6.16L72.48 6.16L72.48 6.16Q71.75 6.16 71.29 6.68L71.29 6.68L71.29 6.68Q70.83 7.20 70.62 7.97L70.62 7.97L70.62 7.97Q70.42 8.74 70.42 9.53L70.42 9.53L70.42 9.53Q70.42 10.28 70.71 10.65L70.71 10.65L70.71 10.65Q71.01 11.02 71.64 11.02L71.64 11.02ZM76.75 12.29L78.05 4.93L79.41 4.93L79.41 5.92L79.51 5.92L79.51 5.92Q79.93 5.42 80.58 5.09L80.58 5.09L80.58 5.09Q81.23 4.76 81.93 4.76L81.93 4.76L81.93 4.76Q82.89 4.76 83.47 5.21L83.47 5.21L83.47 5.21Q84.06 5.67 84.06 6.64L84.06 6.64L84.06 6.64Q84.06 7.01 83.93 7.74L83.93 7.74L83.12 12.29L81.44 12.29L82.22 7.84L82.22 7.84Q82.31 7.34 82.31 7.15L82.31 7.15L82.31 7.15Q82.31 6.65 82.05 6.43L82.05 6.43L82.05 6.43Q81.79 6.22 81.31 6.22L81.31 6.22L81.31 6.22Q80.51 6.22 79.90 6.78L79.90 6.78L79.90 6.78Q79.30 7.34 79.13 8.33L79.13 8.33L78.43 12.29L76.75 12.29ZM88.37 12.46L88.37 12.46Q86.70 12.46 85.88 11.77L85.88 11.77L85.88 11.77Q85.06 11.07 85.06 9.63L85.06 9.63L85.06 9.63Q85.06 8.32 85.48 7.21L85.48 7.21L85.48 7.21Q85.89 6.10 86.78 5.43L86.78 5.43L86.78 5.43Q87.67 4.76 89.04 4.76L89.04 4.76L89.04 4.76Q92.04 4.76 92.04 7.43L92.04 7.43L92.04 7.43Q92.04 7.99 91.92 8.51L91.92 8.51L91.84 9.02L86.81 9.02L86.81 9.02Q86.77 9.24 86.77 9.62L86.77 9.62L86.77 9.62Q86.77 10.39 87.14 10.76L87.14 10.76L87.14 10.76Q87.51 11.13 88.31 11.13L88.31 11.13L88.31 11.13Q89.03 11.13 89.48 10.78L89.48 10.78L89.48 10.78Q89.94 10.43 90.06 9.72L90.06 9.72L91.71 9.72L91.71 9.72Q91.50 11.07 90.60 11.77L90.60 11.77L90.60 11.77Q89.70 12.46 88.37 12.46L88.37 12.46ZM87.05 7.83L90.31 7.83L90.31 7.83Q90.36 7.57 90.36 7.34L90.36 7.34L90.36 7.34Q90.36 6.69 90.02 6.39L90.02 6.39L90.02 6.39Q89.68 6.09 89.08 6.09L89.08 6.09L89.08 6.09Q87.53 6.09 87.05 7.83L87.05 7.83ZM92.82 12.29L94.12 4.93L95.48 4.93L95.45 6.09L95.55 6.09L95.55 6.09Q95.89 5.47 96.31 5.12L96.31 5.12L96.31 5.12Q96.73 4.76 97.38 4.76L97.38 4.76L97.38 4.76Q97.66 4.76 97.89 4.82L97.89 4.82L97.89 4.82Q98.11 4.87 98.11 4.89L98.11 4.89L97.85 6.47L97.31 6.47L97.31 6.47Q95.52 6.47 95.16 8.51L95.16 8.51L94.50 12.29L92.82 12.29ZM100.97 12.46L100.97 12.46Q99.46 12.46 98.66 11.94L98.66 11.94L98.66 11.94Q97.86 11.41 97.86 10.54L97.86 10.54L97.86 10.54Q97.86 10.35 97.90 10.18L97.90 10.18L97.90 10.18Q97.94 10.01 97.96 9.97L97.96 9.97L99.60 9.97L99.60 9.97Q99.54 10.09 99.54 10.23L99.54 10.23L99.54 10.23Q99.54 10.71 99.95 10.93L99.95 10.93L99.95 10.93Q100.35 11.14 100.98 11.14L100.98 11.14L100.98 11.14Q101.65 11.14 102.14 10.91L102.14 10.91L102.14 10.91Q102.63 10.68 102.63 10.22L102.63 10.22L102.63 10.22Q102.63 9.81 102.24 9.62L102.24 9.62L102.24 9.62Q101.85 9.42 101.00 9.18L101.00 9.18L101.00 9.18Q100.24 8.99 99.76 8.79L99.76 8.79L99.76 8.79Q99.27 8.60 98.93 8.22L98.93 8.22L98.93 8.22Q98.59 7.84 98.59 7.24L98.59 7.24L98.59 7.24Q98.59 6.08 99.51 5.42L99.51 5.42L99.51 5.42Q100.44 4.76 101.86 4.76L101.86 4.76L101.86 4.76Q103.18 4.76 103.97 5.22L103.97 5.22L103.97 5.22Q104.76 5.68 104.76 6.47L104.76 6.47L104.76 6.47Q104.76 6.65 104.73 6.82L104.73 6.82L104.73 6.82Q104.69 7 104.66 7.07L104.66 7.07L103.03 7.07L103.03 7.07Q103.05 6.99 103.05 6.86L103.05 6.86L103.05 6.86Q103.05 6.50 102.75 6.29L102.75 6.29L102.75 6.29Q102.44 6.09 101.84 6.09L101.84 6.09L101.84 6.09Q101.11 6.09 100.72 6.33L100.72 6.33L100.72 6.33Q100.34 6.57 100.34 6.90L100.34 6.90L100.34 6.90Q100.34 7.25 100.69 7.42L100.69 7.42L100.69 7.42Q101.05 7.59 101.86 7.80L101.86 7.80L101.86 7.80Q102.65 7.99 103.15 8.18L103.15 8.18L103.15 8.18Q103.66 8.37 104.02 8.77L104.02 8.77L104.02 8.77Q104.38 9.17 104.38 9.81L104.38 9.81L104.38 9.81Q104.38 11.17 103.41 11.82L103.41 11.82L103.41 11.82Q102.44 12.46 100.97 12.46L100.97 12.46Z"></path></g><!----><g data-v-423bf9ae="" id="bfe68392-5c25-4e65-b091-548c647a3851" transform="matrix(1.132217919470102,0,0,1.132217919470102,-5.7158647221451915,-5.709878004086889)" stroke="none" fill="white"><path d="M84.901 84.859H5.41V5.369h79.491v79.49zm-78.491-1h77.491V6.369H6.41v77.49z"></path><path d="M8.561 10.771h2.5v1h-2.5zM72.5 11.771h-5.12v-1h5.12v1zm-10.239 0h-5.12v-1h5.12v1zm-10.24 0H46.9v-1h5.12v1zm-10.241 0h-5.12v-1h5.12v1zm-10.239 0h-5.12v-1h5.12v1zm-10.24 0h-5.12v-1h5.12v1zM77.62 10.771h2.5v1h-2.5zM8.561 20.164h3v1h-3zM71.16 21.164H65.2v-1h5.96v1zm-11.92 0h-5.96v-1h5.96v1zm-11.92 0h-5.96v-1h5.96v1zm-11.92 0h-5.96v-1h5.96v1zm-11.92 0h-5.96v-1h5.96v1zM77.12 20.164h3v1h-3zM8.561 29.557h3.5v1h-3.5zM69.447 30.557h-7.174v-1h7.174v1zm-14.346 0h-7.174v-1h7.174v1zm-14.347 0h-7.173v-1h7.173v1zm-14.347 0h-7.173v-1h7.173v1zM76.62 29.557h3.5v1h-3.5zM8.561 48.342h2.5v1h-2.5zM72.5 49.342h-5.12v-1h5.12v1zm-10.239 0h-5.12v-1h5.12v1zm-10.24 0H46.9v-1h5.12v1zm-10.241 0h-5.12v-1h5.12v1zm-10.239 0h-5.12v-1h5.12v1zm-10.24 0h-5.12v-1h5.12v1zM77.62 48.342h2.5v1h-2.5z"></path><g><path d="M8.561 57.735h4v1h-4zM69.058 58.735h-7.063v-1h7.063v1zm-14.124 0h-7.063v-1h7.063v1zm-14.125 0h-7.062v-1h7.062v1zm-14.124 0h-7.062v-1h7.062v1zM76.12 57.735h4v1h-4z"></path></g><g><path d="M8.561 67.127h3.5v1h-3.5zM69.447 68.127h-7.174v-1h7.174v1zm-14.346 0h-7.174v-1h7.174v1zm-14.347 0h-7.173v-1h7.173v1zm-14.347 0h-7.173v-1h7.173v1zM76.62 67.127h3.5v1h-3.5z"></path></g><g><path d="M8.561 38.949h2.5v1h-2.5zM72.5 39.949h-5.12v-1h5.12v1zm-10.239 0h-5.12v-1h5.12v1zm-10.24 0H46.9v-1h5.12v1zm-10.241 0h-5.12v-1h5.12v1zm-10.239 0h-5.12v-1h5.12v1zm-10.24 0h-5.12v-1h5.12v1zM77.62 38.949h2.5v1h-2.5z"></path></g><g><path d="M8.561 76.521h2.5v1h-2.5zM72.5 77.521h-5.12v-1h5.12v1zm-10.239 0h-5.12v-1h5.12v1zm-10.24 0H46.9v-1h5.12v1zm-10.241 0h-5.12v-1h5.12v1zm-10.239 0h-5.12v-1h5.12v1zm-10.24 0h-5.12v-1h5.12v1zM77.62 76.521h2.5v1h-2.5z"></path></g></g><!----><g data-v-423bf9ae="" id="e3f20c0e-c979-4c8d-b119-a0cbe0e55b83" fill="white" transform="matrix(1.444835451192378,0,0,1.444835451192378,109.1486738356549,55.80997694114496)"><path d="M0.59 7.91C0.59 11.31 2.95 12.87 5.54 12.87C7.32 12.87 9.10 11.90 9.14 11.59C9.31 10.29 9.37 9.70 9.37 9.66C9.37 9.56 9.32 9.52 9.16 9.51C9.10 9.51 9.04 9.49 9.00 9.49C8.89 9.49 8.83 9.53 8.81 9.70L8.62 11.33C8.61 11.45 7.50 12.24 5.94 12.24C3.81 12.24 2.10 10.29 2.10 7.94C2.10 5.42 3.53 3.54 5.53 3.54C7.38 3.54 8.72 5.01 8.72 5.17C8.72 5.29 8.67 6.40 8.67 6.45C8.67 6.59 8.71 6.64 8.97 6.64C9.17 6.64 9.24 6.62 9.24 6.44C9.24 5.73 9.30 3.92 9.30 3.67C9.30 3.47 9.18 3.44 8.97 3.44C8.75 3.44 8.72 3.50 8.72 3.67L8.72 4.05C8.72 4.16 8.68 4.16 8.55 4.06C8.27 3.86 7.29 3.04 5.63 3.04C2.79 3.04 0.59 4.96 0.59 7.91ZM17.75 12.39C17.75 12.63 17.78 12.68 17.98 12.68C18.30 12.68 19.26 12.64 19.68 12.64C20.10 12.64 24.46 12.68 24.78 12.68C25.05 12.68 25.12 12.66 25.13 12.49C25.19 12.08 25.42 10.72 25.42 10.60C25.42 10.47 25.27 10.44 25.10 10.43C25.00 10.42 24.92 10.46 24.91 10.56L24.74 11.76C24.70 12.05 24.68 12.03 24.46 12.04C24.30 12.05 21.80 12.12 20.37 12.12C20.33 12.12 20.29 11.38 20.29 10.54L20.29 6.66C20.29 5.40 20.30 3.70 20.40 3.70L21.38 3.70C21.62 3.70 21.64 3.63 21.64 3.44C21.64 3.23 21.63 3.19 21.39 3.19C21.07 3.19 20.13 3.23 19.71 3.23C19.29 3.23 18.35 3.19 18.13 3.19C17.91 3.19 17.85 3.22 17.85 3.44C17.85 3.65 17.89 3.70 18.09 3.70L18.91 3.70C18.96 3.70 18.98 4.23 18.98 4.90L18.98 8.13C18.98 10.07 18.96 12.18 18.87 12.18L18.03 12.18C17.81 12.18 17.75 12.21 17.75 12.39ZM33.04 12.39C33.04 12.63 33.07 12.68 33.26 12.68C33.59 12.68 34.55 12.64 34.97 12.64C35.39 12.64 39.90 12.68 40.22 12.68C40.35 12.68 40.50 12.66 40.50 12.49C40.50 12.07 40.54 11.23 40.54 10.53C40.54 10.39 40.39 10.39 40.26 10.39C40.15 10.39 40.03 10.39 40.03 10.51C40.01 11.06 40.01 11.41 39.98 11.76C39.96 12.01 39.96 12.04 39.86 12.04C39.70 12.04 37.07 12.08 35.57 12.08C35.50 12.08 35.46 10.11 35.42 8.26C35.42 8.06 35.46 8.09 35.60 8.09L37.88 8.09C38.58 8.09 38.61 8.20 38.61 8.30L38.61 9.00C38.61 9.14 38.79 9.14 38.91 9.14C39.00 9.14 39.13 9.13 39.13 9.02C39.13 8.83 39.10 8.33 39.10 7.83C39.10 7.32 39.13 6.83 39.13 6.71C39.13 6.59 38.99 6.58 38.89 6.58C38.78 6.58 38.61 6.59 38.61 6.72L38.61 7.45C38.61 7.62 38.16 7.63 37.88 7.63L35.55 7.63C35.43 7.63 35.42 7.63 35.42 7.45C35.41 6.75 35.39 6.06 35.39 5.46C35.39 5.12 35.39 3.71 35.48 3.71C36.71 3.71 39.21 3.75 39.21 3.81C39.21 3.99 39.17 4.83 39.17 4.89C39.17 5.04 39.24 5.10 39.42 5.10C39.62 5.10 39.69 5.08 39.69 4.94C39.69 3.85 39.75 3.36 39.75 3.09C39.75 2.91 39.66 2.90 39.47 2.90C39.27 2.90 39.27 2.95 39.24 3.11C39.23 3.25 39.30 3.25 38.39 3.25C37.77 3.25 35.63 3.29 34.86 3.29C34.37 3.29 33.43 3.25 33.33 3.25C33.21 3.25 33.15 3.30 33.15 3.49C33.15 3.72 33.22 3.74 33.39 3.74L34.05 3.74C34.10 3.74 34.17 4.79 34.17 5.71C34.17 5.80 34.23 8.27 34.23 9.83L34.23 11.17C34.23 11.84 34.20 12.18 34.17 12.18L33.32 12.18C33.10 12.18 33.04 12.21 33.04 12.39ZM48.37 12.39C48.37 12.63 48.37 12.68 48.57 12.68C48.73 12.68 49.06 12.64 49.63 12.64C50.25 12.64 50.79 12.68 50.95 12.68C51.11 12.68 51.11 12.61 51.11 12.40C51.11 12.24 51.11 12.18 50.95 12.18L49.87 12.18C49.87 12.18 49.85 12.18 49.85 12.17C49.87 11.87 50.64 9.90 50.99 9.02C51.06 8.83 51.07 8.79 51.28 8.79L54.11 8.79C54.25 8.79 54.25 8.81 54.32 9.03C54.59 9.77 55.30 11.89 55.30 12.17C55.30 12.18 55.29 12.18 55.29 12.18L54.52 12.18C54.29 12.18 54.28 12.19 54.28 12.39C54.28 12.63 54.29 12.68 54.46 12.68C54.78 12.68 55.65 12.64 56.07 12.64C56.49 12.64 57.16 12.68 57.37 12.68C57.51 12.68 57.53 12.61 57.53 12.40C57.53 12.24 57.51 12.18 57.37 12.18L56.88 12.18C56.78 12.18 55.76 9.34 55.20 7.78L53.52 3.07C53.51 3.00 53.44 2.94 53.35 2.94C53.23 2.94 53.13 3.16 53.05 3.35C52.89 3.71 52.65 3.84 52.54 4.13L51.06 7.57C50.88 8.01 49.17 12.18 49.04 12.18L48.62 12.18C48.40 12.18 48.37 12.19 48.37 12.39ZM51.27 8.33C51.27 8.30 51.30 8.23 51.34 8.13L52.71 4.77C52.75 4.66 52.78 4.61 52.81 4.61C52.82 4.61 52.84 4.63 52.88 4.77L54.04 8.18C54.07 8.25 54.08 8.29 54.08 8.32C54.08 8.36 54.05 8.37 53.96 8.37L51.45 8.37C51.27 8.37 51.27 8.34 51.27 8.33ZM65.28 12.39C65.28 12.63 65.30 12.68 65.49 12.68C65.67 12.68 66.05 12.64 66.67 12.64C67.30 12.64 67.86 12.68 68.18 12.68C68.35 12.68 68.35 12.61 68.35 12.40C68.35 12.24 68.35 12.18 68.18 12.18L66.98 12.18C66.93 12.18 66.92 11.54 66.92 10.79C66.92 9.46 66.93 7.48 66.93 5.99C66.93 5.25 66.93 4.84 66.95 4.28C66.95 4.02 67.02 4.14 67.14 4.28L74.03 12.66C74.12 12.75 74.20 12.89 74.31 12.89C74.42 12.89 74.49 12.77 74.49 12.54C74.49 12.39 74.66 6.65 74.68 4.48C74.68 4.06 74.70 3.70 74.73 3.70L75.36 3.70C75.59 3.70 75.64 3.68 75.64 3.49C75.64 3.25 75.64 3.19 75.45 3.19C75.25 3.19 74.82 3.23 74.26 3.23C73.64 3.23 72.84 3.19 72.74 3.19C72.58 3.19 72.58 3.26 72.58 3.47C72.58 3.64 72.58 3.70 72.74 3.70L74.05 3.70C74.06 3.70 74.06 4.33 74.06 4.44C74.06 5.85 74.09 8.33 74.09 9.70L74.09 10.29C74.09 10.57 74.07 10.65 73.85 10.37L68.17 3.39C68.05 3.25 68.03 3.19 67.86 3.19C67.77 3.19 67.40 3.23 67.09 3.23C66.79 3.23 65.72 3.19 65.52 3.19C65.35 3.19 65.32 3.26 65.32 3.47C65.32 3.64 65.35 3.70 65.52 3.70L66.43 3.70C66.43 4.17 66.39 8.53 66.32 10.79C66.29 11.69 66.30 12.18 66.19 12.18L65.55 12.18C65.32 12.18 65.28 12.19 65.28 12.39ZM83.54 12.39C83.54 12.63 83.58 12.68 83.78 12.68C84.10 12.68 84.85 12.64 85.57 12.64C86.23 12.64 87.02 12.68 87.25 12.68C87.42 12.68 87.44 12.61 87.44 12.40C87.44 12.24 87.42 12.18 87.25 12.18L86.28 12.18C86.18 12.18 86.16 9.55 86.16 7.76L86.16 5.87C86.16 5.14 86.18 3.70 86.28 3.70L87.19 3.70C87.42 3.70 87.44 3.68 87.44 3.49C87.44 3.25 87.42 3.19 87.25 3.19C86.93 3.19 86.25 3.23 85.60 3.23C84.78 3.23 84.07 3.19 83.85 3.19C83.66 3.19 83.59 3.21 83.59 3.44C83.59 3.68 83.68 3.70 83.85 3.70L84.77 3.70C84.81 3.70 84.88 4.79 84.88 5.71L84.88 7.08C84.88 8.92 84.87 12.18 84.76 12.18L83.83 12.18C83.61 12.18 83.54 12.19 83.54 12.39ZM95.34 12.39C95.34 12.63 95.35 12.68 95.55 12.68C95.73 12.68 96.11 12.64 96.73 12.64C97.36 12.64 97.92 12.68 98.24 12.68C98.41 12.68 98.41 12.61 98.41 12.40C98.41 12.24 98.41 12.18 98.24 12.18L97.03 12.18C96.99 12.18 96.98 11.54 96.98 10.79C96.98 9.46 96.99 7.48 96.99 5.99C96.99 5.25 96.99 4.84 97.01 4.28C97.01 4.02 97.08 4.14 97.20 4.28L104.09 12.66C104.17 12.75 104.26 12.89 104.37 12.89C104.48 12.89 104.55 12.77 104.55 12.54C104.55 12.39 104.72 6.65 104.73 4.48C104.73 4.06 104.76 3.70 104.79 3.70L105.42 3.70C105.64 3.70 105.70 3.68 105.70 3.49C105.70 3.25 105.70 3.19 105.50 3.19C105.31 3.19 104.87 3.23 104.31 3.23C103.70 3.23 102.90 3.19 102.80 3.19C102.63 3.19 102.63 3.26 102.63 3.47C102.63 3.64 102.63 3.70 102.80 3.70L104.10 3.70C104.12 3.70 104.12 4.33 104.12 4.44C104.12 5.85 104.15 8.33 104.15 9.70L104.15 10.29C104.15 10.57 104.13 10.65 103.91 10.37L98.22 3.39C98.11 3.25 98.08 3.19 97.92 3.19C97.83 3.19 97.45 3.23 97.15 3.23C96.85 3.23 95.77 3.19 95.58 3.19C95.41 3.19 95.38 3.26 95.38 3.47C95.38 3.64 95.41 3.70 95.58 3.70L96.49 3.70C96.49 4.17 96.45 8.53 96.38 10.79C96.35 11.69 96.36 12.18 96.25 12.18L95.61 12.18C95.38 12.18 95.34 12.19 95.34 12.39ZM113.81 7.91C113.81 11.40 116.17 12.89 118.76 12.89C120.65 12.89 122.65 11.89 122.65 11.58C122.65 11.12 122.67 10.68 122.67 10.33C122.67 9.81 122.68 9.56 122.81 9.56L123.24 9.56C123.38 9.56 123.40 9.39 123.40 9.30C123.40 9.18 123.38 9.06 123.24 9.06C123.02 9.06 122.65 9.10 121.98 9.10C121.53 9.10 120.79 9.07 120.11 9.06C119.97 9.06 119.97 9.24 119.97 9.35C119.97 9.45 119.99 9.56 120.12 9.56L121.34 9.56C121.38 9.56 121.44 9.87 121.44 10.33C121.44 10.82 121.42 11.41 121.39 11.65C121.38 11.76 120.74 12.39 119.15 12.39C116.91 12.39 115.32 10.29 115.32 7.94C115.32 5.42 116.87 3.54 118.87 3.54C120.76 3.54 121.94 4.87 121.94 5.03C121.94 5.15 121.88 6.12 121.88 6.17C121.88 6.31 121.93 6.36 122.19 6.36C122.39 6.36 122.46 6.33 122.46 6.15C122.46 5.43 122.50 3.75 122.50 3.56C122.50 3.36 122.40 3.33 122.19 3.33C121.97 3.33 121.94 3.39 121.94 3.56L121.94 3.91C121.94 3.99 121.90 4.02 121.77 3.92C121.49 3.72 120.50 3.08 118.93 3.08C116.09 3.08 113.81 4.79 113.81 7.91ZM141.16 12.39C141.16 12.63 141.19 12.68 141.39 12.68C141.62 12.68 142.13 12.64 142.55 12.64C142.97 12.64 143.46 12.68 143.78 12.68C143.95 12.68 143.98 12.61 143.98 12.40C143.98 12.24 143.95 12.18 143.78 12.18L142.81 12.18C142.76 12.18 142.74 11.54 142.74 10.79C142.74 8.96 142.79 6.13 142.86 4.28C142.88 3.88 142.91 3.91 143.05 4.27L146.31 12.32C146.41 12.54 146.48 12.74 146.59 12.74C146.69 12.74 146.76 12.63 146.85 12.45C147.18 11.79 147.36 11.75 147.63 11.09L150.22 4.47C150.35 4.16 150.39 4.02 150.40 4.47C150.43 5.66 150.47 8.47 150.47 9.74C150.47 10.99 150.43 12.18 150.37 12.18L149.74 12.18C149.52 12.18 149.45 12.19 149.45 12.39C149.45 12.63 149.48 12.68 149.67 12.68C149.87 12.68 150.57 12.64 151.17 12.64C151.59 12.64 152.35 12.68 152.67 12.68C152.84 12.68 152.87 12.61 152.87 12.40C152.87 12.22 152.81 12.18 152.64 12.18L151.91 12.18C151.80 12.18 151.70 8.44 151.70 6.03L151.70 4.77C151.70 4.17 151.73 3.77 151.77 3.70L152.43 3.70C152.66 3.70 152.70 3.68 152.70 3.49C152.70 3.25 152.68 3.19 152.49 3.19C152.17 3.19 151.48 3.23 151.06 3.23L150.39 3.23C150.16 3.23 150.14 3.29 150.02 3.58L147.28 10.72C147.20 10.95 147.17 11.02 147.06 10.74L144.12 3.40C144.05 3.22 143.99 3.19 143.85 3.19C143.77 3.19 143.28 3.23 142.97 3.23C142.46 3.23 141.61 3.19 141.41 3.19C141.27 3.19 141.27 3.26 141.27 3.47C141.27 3.64 141.27 3.70 141.41 3.70L142.11 3.70C142.38 3.70 142.38 3.72 142.38 3.84C142.38 4.82 142.17 9.94 142.13 10.79C142.09 11.55 142.09 12.18 142.03 12.18L141.46 12.18C141.23 12.18 141.16 12.19 141.16 12.39ZM160.62 12.39C160.62 12.63 160.62 12.68 160.82 12.68C160.99 12.68 161.31 12.64 161.88 12.64C162.50 12.64 163.04 12.68 163.20 12.68C163.37 12.68 163.37 12.61 163.37 12.40C163.37 12.24 163.37 12.18 163.20 12.18L162.12 12.18C162.12 12.18 162.11 12.18 162.11 12.17C162.12 11.87 162.89 9.90 163.24 9.02C163.31 8.83 163.32 8.79 163.53 8.79L166.36 8.79C166.50 8.79 166.50 8.81 166.57 9.03C166.84 9.77 167.55 11.89 167.55 12.17C167.55 12.18 167.54 12.18 167.54 12.18L166.77 12.18C166.54 12.18 166.53 12.19 166.53 12.39C166.53 12.63 166.54 12.68 166.71 12.68C167.03 12.68 167.90 12.64 168.32 12.64C168.74 12.64 169.41 12.68 169.62 12.68C169.76 12.68 169.78 12.61 169.78 12.40C169.78 12.24 169.76 12.18 169.62 12.18L169.13 12.18C169.04 12.18 168.01 9.34 167.45 7.78L165.77 3.07C165.76 3.00 165.69 2.94 165.61 2.94C165.48 2.94 165.38 3.16 165.30 3.35C165.14 3.71 164.91 3.84 164.79 4.13L163.31 7.57C163.13 8.01 161.42 12.18 161.29 12.18L160.87 12.18C160.65 12.18 160.62 12.19 160.62 12.39ZM163.52 8.33C163.52 8.30 163.55 8.23 163.59 8.13L164.96 4.77C165.00 4.66 165.03 4.61 165.06 4.61C165.07 4.61 165.09 4.63 165.13 4.77L166.29 8.18C166.32 8.25 166.33 8.29 166.33 8.32C166.33 8.36 166.31 8.37 166.21 8.37L163.70 8.37C163.52 8.37 163.52 8.34 163.52 8.33ZM177.46 12.46C177.46 12.63 177.48 12.70 177.66 12.70C177.81 12.70 179.05 12.64 179.44 12.64C180.29 12.64 181.17 12.70 182.03 12.70C184.65 12.70 187.04 11.07 187.04 7.91C187.04 4.89 184.70 3.07 181.66 3.07C181.10 3.07 179.84 3.23 178.81 3.23C178.33 3.23 177.87 3.22 177.81 3.22C177.63 3.22 177.62 3.32 177.62 3.49C177.62 3.68 177.69 3.70 177.81 3.70L178.78 3.67C178.81 3.67 178.81 4.20 178.81 4.72C178.81 5.91 178.72 12.21 178.64 12.21L177.74 12.21C177.56 12.21 177.46 12.22 177.46 12.46ZM180.04 11.40C180.04 9.46 180.04 7.52 180.05 5.60C180.05 5.03 180.10 3.61 180.14 3.60C180.43 3.53 181.02 3.51 181.37 3.51C183.93 3.51 185.54 5.75 185.54 7.73C185.54 8.95 185.50 12.25 180.82 12.25C180.56 12.25 180.15 12.25 180.05 12.21C180.04 12.19 180.04 11.79 180.04 11.40ZM195.15 12.39C195.15 12.63 195.17 12.68 195.37 12.68C195.69 12.68 196.66 12.64 197.08 12.64C197.50 12.64 202.01 12.68 202.33 12.68C202.45 12.68 202.61 12.66 202.61 12.49C202.61 12.07 202.65 11.23 202.65 10.53C202.65 10.39 202.50 10.39 202.37 10.39C202.26 10.39 202.13 10.39 202.13 10.51C202.12 11.06 202.12 11.41 202.09 11.76C202.06 12.01 202.06 12.04 201.96 12.04C201.81 12.04 199.18 12.08 197.68 12.08C197.61 12.08 197.57 10.11 197.53 8.26C197.53 8.06 197.57 8.09 197.71 8.09L199.99 8.09C200.69 8.09 200.72 8.20 200.72 8.30L200.72 9.00C200.72 9.14 200.90 9.14 201.01 9.14C201.11 9.14 201.24 9.13 201.24 9.02C201.24 8.83 201.21 8.33 201.21 7.83C201.21 7.32 201.24 6.83 201.24 6.71C201.24 6.59 201.10 6.58 201.00 6.58C200.89 6.58 200.72 6.59 200.72 6.72L200.72 7.45C200.72 7.62 200.27 7.63 199.99 7.63L197.65 7.63C197.54 7.63 197.53 7.63 197.53 7.45C197.51 6.75 197.50 6.06 197.50 5.46C197.50 5.12 197.50 3.71 197.58 3.71C198.81 3.71 201.32 3.75 201.32 3.81C201.32 3.99 201.28 4.83 201.28 4.89C201.28 5.04 201.35 5.10 201.53 5.10C201.73 5.10 201.80 5.08 201.80 4.94C201.80 3.85 201.85 3.36 201.85 3.09C201.85 2.91 201.77 2.90 201.57 2.90C201.38 2.90 201.38 2.95 201.35 3.11C201.33 3.25 201.40 3.25 200.49 3.25C199.88 3.25 197.74 3.29 196.97 3.29C196.48 3.29 195.54 3.25 195.44 3.25C195.31 3.25 195.26 3.30 195.26 3.49C195.26 3.72 195.33 3.74 195.50 3.74L196.15 3.74C196.21 3.74 196.28 4.79 196.28 5.71C196.28 5.80 196.34 8.27 196.34 9.83L196.34 11.17C196.34 11.84 196.31 12.18 196.28 12.18L195.43 12.18C195.20 12.18 195.15 12.21 195.15 12.39ZM220.42 12.39C220.42 12.63 220.44 12.68 220.64 12.68C220.96 12.68 221.93 12.64 222.35 12.64C222.77 12.64 227.28 12.68 227.60 12.68C227.72 12.68 227.88 12.66 227.88 12.49C227.88 12.07 227.92 11.23 227.92 10.53C227.92 10.39 227.77 10.39 227.64 10.39C227.53 10.39 227.40 10.39 227.40 10.51C227.39 11.06 227.39 11.41 227.36 11.76C227.33 12.01 227.33 12.04 227.23 12.04C227.08 12.04 224.45 12.08 222.95 12.08C222.88 12.08 222.84 10.11 222.80 8.26C222.80 8.06 222.84 8.09 222.98 8.09L225.26 8.09C225.96 8.09 225.99 8.20 225.99 8.30L225.99 9.00C225.99 9.14 226.17 9.14 226.28 9.14C226.38 9.14 226.51 9.13 226.51 9.02C226.51 8.83 226.48 8.33 226.48 7.83C226.48 7.32 226.51 6.83 226.51 6.71C226.51 6.59 226.37 6.58 226.27 6.58C226.16 6.58 225.99 6.59 225.99 6.72L225.99 7.45C225.99 7.62 225.54 7.63 225.26 7.63L222.92 7.63C222.81 7.63 222.80 7.63 222.80 7.45C222.78 6.75 222.77 6.06 222.77 5.46C222.77 5.12 222.77 3.71 222.85 3.71C224.08 3.71 226.59 3.75 226.59 3.81C226.59 3.99 226.55 4.83 226.55 4.89C226.55 5.04 226.62 5.10 226.80 5.10C227.00 5.10 227.07 5.08 227.07 4.94C227.07 3.85 227.12 3.36 227.12 3.09C227.12 2.91 227.04 2.90 226.84 2.90C226.65 2.90 226.65 2.95 226.62 3.11C226.60 3.25 226.67 3.25 225.76 3.25C225.15 3.25 223.01 3.29 222.24 3.29C221.75 3.29 220.81 3.25 220.71 3.25C220.58 3.25 220.53 3.30 220.53 3.49C220.53 3.72 220.60 3.74 220.77 3.74L221.42 3.74C221.48 3.74 221.55 4.79 221.55 5.71C221.55 5.80 221.61 8.27 221.61 9.83L221.61 11.17C221.61 11.84 221.58 12.18 221.55 12.18L220.70 12.18C220.47 12.18 220.42 12.21 220.42 12.39ZM235.75 12.39C235.75 12.63 235.75 12.68 235.94 12.68C236.11 12.68 236.43 12.64 237.01 12.64C237.62 12.64 238.17 12.68 238.32 12.68C238.49 12.68 238.49 12.61 238.49 12.40C238.49 12.24 238.49 12.18 238.32 12.18L237.24 12.18C237.24 12.18 237.23 12.18 237.23 12.17C237.24 11.87 238.01 9.90 238.36 9.02C238.43 8.83 238.45 8.79 238.66 8.79L241.49 8.79C241.63 8.79 241.63 8.81 241.70 9.03C241.96 9.77 242.68 11.89 242.68 12.17C242.68 12.18 242.66 12.18 242.66 12.18L241.89 12.18C241.67 12.18 241.65 12.19 241.65 12.39C241.65 12.63 241.67 12.68 241.84 12.68C242.16 12.68 243.03 12.64 243.45 12.64C243.87 12.64 244.54 12.68 244.75 12.68C244.89 12.68 244.90 12.61 244.90 12.40C244.90 12.24 244.89 12.18 244.75 12.18L244.26 12.18C244.16 12.18 243.14 9.34 242.58 7.78L240.90 3.07C240.88 3.00 240.81 2.94 240.73 2.94C240.60 2.94 240.51 3.16 240.42 3.35C240.27 3.71 240.03 3.84 239.92 4.13L238.43 7.57C238.25 8.01 236.54 12.18 236.42 12.18L236.00 12.18C235.77 12.18 235.75 12.19 235.75 12.39ZM238.64 8.33C238.64 8.30 238.67 8.23 238.71 8.13L240.09 4.77C240.13 4.66 240.16 4.61 240.18 4.61C240.20 4.61 240.21 4.63 240.25 4.77L241.42 8.18C241.44 8.25 241.46 8.29 241.46 8.32C241.46 8.36 241.43 8.37 241.33 8.37L238.83 8.37C238.64 8.37 238.64 8.34 238.64 8.33ZM252.87 5.77C252.87 9.07 257.85 8.20 257.85 10.65C257.85 11.59 257.01 12.31 256.03 12.31C255.21 12.31 253.61 11.83 253.58 11.47L253.50 10.15C253.48 9.97 253.41 9.91 253.23 9.91L253.16 9.91C252.95 9.91 252.95 10.00 252.95 10.12C252.95 10.32 253.06 11.66 253.09 12.17C253.11 12.38 254.37 12.85 255.91 12.85C257.47 12.85 259.08 11.87 259.08 10.11C259.08 6.79 254.11 7.87 254.11 5.32C254.11 4.31 254.90 3.56 255.93 3.56C256.96 3.56 258.05 4.58 258.05 4.89C258.05 5.01 258.01 5.73 258.01 5.78C258.01 5.92 258.05 5.99 258.31 5.99C258.55 5.99 258.57 5.94 258.57 5.75C258.57 5.04 258.65 3.68 258.65 3.53C258.65 3.30 258.61 3.29 258.34 3.29C258.12 3.29 258.10 3.32 258.09 3.53C258.09 3.61 258.08 3.78 258.03 3.78C257.98 3.78 257.89 3.74 257.82 3.68C257.03 3.14 256.41 3.08 255.91 3.08C254.38 3.08 252.87 4.17 252.87 5.77ZM266.49 3.44C266.49 3.68 266.57 3.70 266.74 3.70L267.15 3.70C267.27 3.70 269.53 7.74 269.93 8.50C269.99 8.60 270.03 8.65 270.03 8.81C270.03 10.50 270.02 12.18 269.89 12.18L269.18 12.18C268.95 12.18 268.91 12.19 268.91 12.39C268.91 12.63 268.93 12.68 269.12 12.68C269.32 12.68 270.13 12.64 270.72 12.64C271.54 12.64 272.08 12.68 272.40 12.68C272.57 12.68 272.59 12.61 272.59 12.40C272.59 12.24 272.57 12.18 272.40 12.18L271.43 12.18C271.33 12.18 271.31 9.72 271.31 8.22C271.31 8.18 271.31 8.15 271.35 8.09C271.89 7.22 273.84 3.70 273.91 3.70L274.39 3.70C274.55 3.70 274.65 3.68 274.65 3.44C274.65 3.22 274.57 3.19 274.39 3.19C274.16 3.19 273.92 3.23 273.32 3.23C272.73 3.23 272.40 3.19 272.23 3.19C272.03 3.19 271.99 3.25 271.99 3.49C271.99 3.68 272.06 3.70 272.29 3.70L273.01 3.70C273.03 3.70 273.04 3.71 273.04 3.74C273.04 4.05 271.47 6.99 271.10 7.71C270.98 7.92 270.98 7.88 270.87 7.67C270.47 6.89 269.18 4.56 268.88 3.85C268.83 3.71 268.81 3.70 269.00 3.70L269.82 3.70C270.05 3.70 270.07 3.68 270.07 3.49C270.07 3.25 270.03 3.19 269.88 3.19C269.64 3.19 269.02 3.23 268.23 3.23C267.41 3.23 266.92 3.19 266.74 3.19C266.56 3.19 266.49 3.21 266.49 3.44Z"></path></g></svg>