<svg data-v-fde0c5aa="" xmlns="http://www.w3.org/2000/svg" viewBox="0 0 300 300" class="icon"><!----><defs data-v-fde0c5aa=""><linearGradient data-v-fde0c5aa="" gradientTransform="rotate(25)" id="72ec1bcf-b0f1-4aee-bab7-dfaad623c766" x1="0%" y1="0%" x2="100%" y2="0%"><stop data-v-fde0c5aa="" offset="0%" stop-color="#20484F" stop-opacity="1"></stop><stop data-v-fde0c5aa="" offset="100%" stop-color="#4E9BAB" stop-opacity="1"></stop></linearGradient></defs><rect data-v-fde0c5aa="" fill="url(#72ec1bcf-b0f1-4aee-bab7-dfaad623c766)" x="0" y="0" width="300px" height="300px" class="logo-background-square"></rect><!----><defs data-v-fde0c5aa=""><!----></defs><g data-v-fde0c5aa="" id="6cdd8468-9125-4602-88f5-0aefc67972f1" fill="#ffffff" stroke="none" transform="matrix(2.7676090052023965,0,0,2.7676090052023965,25.02723570415867,25.142090411557916)"><path d="M84.901 84.859H5.41V5.369h79.491v79.49zm-78.491-1h77.491V6.369H6.41v77.49z"></path><path d="M8.561 10.771h2.5v1h-2.5zM72.5 11.771h-5.12v-1h5.12v1zm-10.239 0h-5.12v-1h5.12v1zm-10.24 0H46.9v-1h5.12v1zm-10.241 0h-5.12v-1h5.12v1zm-10.239 0h-5.12v-1h5.12v1zm-10.24 0h-5.12v-1h5.12v1zM77.62 10.771h2.5v1h-2.5zM8.561 20.164h3v1h-3zM71.16 21.164H65.2v-1h5.96v1zm-11.92 0h-5.96v-1h5.96v1zm-11.92 0h-5.96v-1h5.96v1zm-11.92 0h-5.96v-1h5.96v1zm-11.92 0h-5.96v-1h5.96v1zM77.12 20.164h3v1h-3zM8.561 29.557h3.5v1h-3.5zM69.447 30.557h-7.174v-1h7.174v1zm-14.346 0h-7.174v-1h7.174v1zm-14.347 0h-7.173v-1h7.173v1zm-14.347 0h-7.173v-1h7.173v1zM76.62 29.557h3.5v1h-3.5zM8.561 48.342h2.5v1h-2.5zM72.5 49.342h-5.12v-1h5.12v1zm-10.239 0h-5.12v-1h5.12v1zm-10.24 0H46.9v-1h5.12v1zm-10.241 0h-5.12v-1h5.12v1zm-10.239 0h-5.12v-1h5.12v1zm-10.24 0h-5.12v-1h5.12v1zM77.62 48.342h2.5v1h-2.5z"></path><g><path d="M8.561 57.735h4v1h-4zM69.058 58.735h-7.063v-1h7.063v1zm-14.124 0h-7.063v-1h7.063v1zm-14.125 0h-7.062v-1h7.062v1zm-14.124 0h-7.062v-1h7.062v1zM76.12 57.735h4v1h-4z"></path></g><g><path d="M8.561 67.127h3.5v1h-3.5zM69.447 68.127h-7.174v-1h7.174v1zm-14.346 0h-7.174v-1h7.174v1zm-14.347 0h-7.173v-1h7.173v1zm-14.347 0h-7.173v-1h7.173v1zM76.62 67.127h3.5v1h-3.5z"></path></g><g><path d="M8.561 38.949h2.5v1h-2.5zM72.5 39.949h-5.12v-1h5.12v1zm-10.239 0h-5.12v-1h5.12v1zm-10.24 0H46.9v-1h5.12v1zm-10.241 0h-5.12v-1h5.12v1zm-10.239 0h-5.12v-1h5.12v1zm-10.24 0h-5.12v-1h5.12v1zM77.62 38.949h2.5v1h-2.5z"></path></g><g><path d="M8.561 76.521h2.5v1h-2.5zM72.5 77.521h-5.12v-1h5.12v1zm-10.239 0h-5.12v-1h5.12v1zm-10.24 0H46.9v-1h5.12v1zm-10.241 0h-5.12v-1h5.12v1zm-10.239 0h-5.12v-1h5.12v1zm-10.24 0h-5.12v-1h5.12v1zM77.62 76.521h2.5v1h-2.5z"></path></g></g><!----></svg>